<svg xmlns="http://www.w3.org/2000/svg" version="1.1" xmlns:xlink="http://www.w3.org/1999/xlink" xmlns:svgjs="http://svgjs.dev/svgjs" width="2000" height="1500" viewBox="0 0 2000 1500"><rect width="2000" height="1500" fill="#dfdad6"></rect><g transform="matrix(0.75,0,0,0.75,249.78667664670684,-0.21332335329350371)"><svg viewBox="0 0 334 334" data-background-color="#dfdad6" preserveAspectRatio="xMidYMid meet" height="2000" width="2000" xmlns="http://www.w3.org/2000/svg" xmlns:xlink="http://www.w3.org/1999/xlink"><g id="tight-bounds" transform="matrix(1,0,0,1,0.04749999999998522,0.04750000000001364)"><svg viewBox="0 0 333.90454557049503 333.90454557049503" height="333.90454557049503" width="333.90454557049503"><g><svg></svg></g><g><svg viewBox="0 0 333.90454557049503 333.90454557049503" height="333.90454557049503" width="333.90454557049503"><g><path d="M0 166.952c0-92.205 74.747-166.952 166.952-166.952 92.205 0 166.952 74.747 166.953 166.952 0 92.205-74.747 166.952-166.953 166.953-92.205 0-166.952-74.747-166.952-166.953zM166.952 320.296c84.689 0 153.343-68.654 153.344-153.344 0-84.689-68.654-153.343-153.344-153.343-84.689 0-153.343 68.654-153.343 153.343 0 84.689 68.654 153.343 153.343 153.344z" data-fill-palette-color="tertiary" fill="#e33e33" stroke="transparent"></path><ellipse rx="160.27418187383762" ry="160.27418187383762" cx="166.95227278524752" cy="166.95227278524752" fill="#e33e33" stroke="transparent" stroke-width="0" fill-opacity="1" data-fill-palette-color="tertiary"></ellipse></g><g transform="matrix(1,0,0,1,79.51034039050523,71.17305217166896)"><svg viewBox="0 0 174.88386478948456 191.55844122715712" height="191.55844122715712" width="174.88386478948456"><g><svg viewBox="0 0 174.88386478948456 191.55844122715712" height="191.55844122715712" width="174.88386478948456"><g><svg viewBox="0 0 174.88386478948456 191.55844122715712" height="191.55844122715712" width="174.88386478948456"><g id="textblocktransform"><svg viewBox="0 0 174.88386478948456 191.55844122715712" height="191.55844122715712" width="174.88386478948456" id="textblock"><g><svg viewBox="0 0 174.88386478948456 191.55844122715712" height="191.55844122715712" width="174.88386478948456"><path d="M174.474 41.086C173.652 21.202 171.309 15.674 171.309 15.674 164.115-4.806 155.137-0.392 147.072 2.551 132.832 2.67 118.649 7.045 104.442 9.391 74.622 9.749 44.547 3.863 14.875 18.378 12.088 22.832-2.892 19.253 0.496 43.631 1.384 53.771 4.623 65.026 4.524 74.331 4.968 75.962 5.585 72.223 5.848 74.57 6.769 80.893 8.273 77.91 9.507 81.648 7.788 91.63 9.022 99.941 10.197 108.65 8.125 110.917 5.47 109.843 4.278 117.359 4.154 122.808 3.488 121.774 2.757 121.535 2.222 121.376 1.145 121.973 1.326 123.683 1.943 129.528-0.705 132.909 0.956 138.635-0.187 144.839 1.745 150.207 1.482 156.928 1.449 158.28 1.63 159.433 1.918 159.752 3.192 161.462 1.334 164.802 1.532 168.421 14.604 193.156 28.787 176.056 42.18 187.43 45.657 179.476 43.043 190.253 44.432 188.583 45.518 186.634 46.307 194.707 47.532 190.134 47.721 188.822 47.433 185.72 48.107 186.316 48.461 186.634 48.773 186.555 48.823 184.725 48.897 181.982 48.247 183.692 48.075 182.26 49.941 175.022 49.48 192.241 51.232 191.526 51.149 189.418 50.64 186.396 51.684 186.793 52.72 183.771 52.753 181.266 53.673 188.066 53.706 189.537 53.871 190.571 54.134 191.287 57.011 183.89 59.873 193.912 62.89 190.571 64.74 186.913 66.516 192.56 68.39 191.168 69.048 190.054 69.714 188.066 70.347 191.406 78.1 192.122 86.363 189.14 93.713 191.526 113.355 187.072 134.344 193.355 155.055 187.469 159.939 185.203 165.011 181.982 169.772 179.397 169.772 179.397 173.628 172.318 173.628 140.504S174.45 112.667 174.573 87.335C174.696 62.003 175.272 60.969 174.45 41.086Z" opacity="1" fill="#e33e33" data-fill-palette-color="tertiary"></path><g transform="matrix(1,0,0,1,30.055340213029147,20.326479041326117)"><svg width="114.77318436342627" viewBox="1.5 -35.5 27 35.5" height="150.9054831445049" data-palette-color="#dfdad6"><path d="M13.6 0L2.4 0 1.5-1.1 3.2-4.4 9.1-31.9 2.3-33.5 2.3-35.5 12.05-35.5 13.6-33.95 6.5-4.2 13.2-3.25 13.6 0ZM17.6-33.9L19.75-35.5 26.5-35.5 28.5-34.1 28.5-1.8 25.35 0 20.55 0 17.6-2.1 17.6-33.9ZM25.15-32.45Q25.15-32.9 24.7-32.9L24.7-32.9 22.1-32.9Q21.65-32.9 21.65-32.45L21.65-32.45 21.65-3.8Q21.65-3.5 22.1-3.5L22.1-3.5 24.2-3.5Q24.65-3.5 24.65-3.8L24.65-3.8 25.15-32.45Z" opacity="1" transform="matrix(1,0,0,1,0,0)" fill="#dfdad6" class="wordmark-text-0" data-fill-palette-color="quaternary" id="text-0"></path></svg></g></svg></g></svg></g></svg></g><g></g></svg></g></svg></g></svg></g><defs></defs></svg><rect width="333.90454557049503" height="333.90454557049503" fill="none" stroke="none" visibility="hidden"></rect></g></svg></g></svg>